<svg width="41" height="43" viewBox="0 0 41 43" fill="none" xmlns="http://www.w3.org/2000/svg">
<path fill-rule="evenodd" clip-rule="evenodd" d="M0.0429688 8.58996C0.0429688 3.96235 3.69322 0.210938 8.19605 0.210938H32.6553C37.158 0.210938 40.8084 3.96235 40.8084 8.58996V33.727C40.8084 38.3545 37.158 42.106 32.6553 42.106H8.19605C3.69322 42.106 0.0429688 38.3545 0.0429688 33.727V8.58996ZM8.19605 4.40045C5.94463 4.40045 4.11951 6.27615 4.11951 8.58996V33.727C4.11951 36.0409 5.94463 37.9165 8.19605 37.9165H20.4257V23.2532H18.3874C17.2617 23.2532 16.3491 22.3154 16.3491 21.1585C16.3491 20.0015 17.2617 19.0637 18.3874 19.0637H20.4257V15.9216C20.4257 11.8724 23.6196 8.58996 27.5596 8.58996H28.7826C29.9083 8.58996 30.8208 9.52782 30.8208 10.6847C30.8208 11.8416 29.9083 12.7795 28.7826 12.7795H27.5596C25.8711 12.7795 24.5022 14.1862 24.5022 15.9216V19.0637H28.7826C29.9083 19.0637 30.8208 20.0015 30.8208 21.1585C30.8208 22.3154 29.9083 23.2532 28.7826 23.2532H24.5022V37.9165H32.6553C34.9067 37.9165 36.7318 36.0409 36.7318 33.727V8.58996C36.7318 6.27615 34.9067 4.40045 32.6553 4.40045H8.19605Z" fill="#A88553"/>
</svg>
