<svg width="42" height="43" viewBox="0 0 42 43" fill="none" xmlns="http://www.w3.org/2000/svg">
<path d="M12.1846 41.913C10.4692 41.8848 8.76776 41.5471 7.16393 40.942C5.78325 40.4213 4.52809 39.5911 3.49606 38.5357C2.43615 37.4943 1.62726 36.2278 1.11125 34.8347C0.511558 33.2164 0.190794 31.4996 0.148955 29.7687C0.0513313 27.5453 0.0234375 26.8276 0.0234375 21.1565C0.0234375 15.4855 0.0513313 14.7678 0.148955 12.5444C0.176848 10.8135 0.511558 9.09669 1.11125 7.47839C1.62726 6.08524 2.45009 4.81875 3.49606 3.77741C4.52809 2.722 5.78325 1.89174 7.16393 1.37107C8.76776 0.765964 10.4692 0.428232 12.1846 0.400087C14.3881 0.301582 15.0994 0.273438 20.7197 0.273438C26.3401 0.273438 27.0513 0.301582 29.2548 0.400087C30.9702 0.428232 32.6717 0.765964 34.2755 1.37107C35.6562 1.89174 36.9114 2.722 37.9434 3.77741C39.0033 4.81875 39.8122 6.08524 40.3282 7.47839C40.9279 9.09669 41.2626 10.8135 41.2905 12.5444C41.3881 14.7678 41.416 15.4855 41.416 21.1565C41.416 26.8276 41.3881 27.5453 41.2905 29.7687C41.2486 31.4996 40.9279 33.2164 40.3282 34.8347C39.8122 36.2278 38.9893 37.4943 37.9434 38.5357C36.9114 39.6051 35.6562 40.4213 34.2755 40.942C32.6717 41.5471 30.9702 41.8708 29.2548 41.913C27.0513 42.0115 26.3401 42.0396 20.7197 42.0396C15.0994 42.0396 14.3881 42.0115 12.1846 41.913ZM12.352 4.15736C11.041 4.17143 9.744 4.41066 8.50278 4.87504C7.61022 5.21277 6.78738 5.74751 6.11796 6.43705C5.43459 7.11251 4.90464 7.9287 4.56993 8.84339C4.1097 10.0817 3.87261 11.4045 3.85866 12.7273C3.76104 14.9366 3.73315 15.584 3.73315 21.1706C3.73315 26.7573 3.76104 27.4046 3.85866 29.6139C3.87261 30.9367 4.1097 32.2454 4.56993 33.4978C4.90464 34.3984 5.43459 35.2287 6.11796 35.9042C6.78738 36.5937 7.59627 37.1284 8.50278 37.4662C9.73005 37.9306 11.041 38.1698 12.352 38.1839C14.5415 38.2824 15.183 38.3105 20.7197 38.3105C26.2564 38.3105 26.8979 38.2964 29.0875 38.1839C30.3984 38.1698 31.6954 37.9306 32.9367 37.4662C33.8432 37.1284 34.6521 36.5937 35.3215 35.9042C36.0048 35.2287 36.5348 34.4125 36.8695 33.4978C37.3297 32.2595 37.5668 30.9367 37.5808 29.6139C37.6784 27.4046 37.7063 26.7573 37.7063 21.1706C37.7063 15.584 37.6923 14.9366 37.5808 12.7273C37.5668 11.4045 37.3297 10.0958 36.8695 8.84339C36.5348 7.94277 36.0048 7.11251 35.3215 6.43705C34.6521 5.74751 33.8432 5.21277 32.9367 4.87504C31.7094 4.41066 30.3984 4.17143 29.0875 4.15736C26.9119 4.05885 26.2564 4.03071 20.7197 4.03071C15.183 4.03071 14.5415 4.04478 12.352 4.15736ZM10.4553 21.1565C10.4553 15.4292 15.0575 10.7994 20.7197 10.7853C26.3959 10.7853 30.9842 15.4292 30.9842 21.1425C30.9842 26.8698 26.3819 31.4996 20.7197 31.5137C15.0436 31.5277 10.4553 26.8839 10.4553 21.1565ZM14.0534 21.1565C14.0534 24.8716 17.0379 27.883 20.7197 27.883C24.4015 27.883 27.386 24.8716 27.386 21.1565C27.386 17.4415 24.4015 14.43 20.7197 14.43C17.0379 14.43 14.0534 17.4415 14.0534 21.1565ZM29.1433 10.0677C29.1433 8.63231 30.3008 7.47839 31.7233 7.47839C33.1459 7.47839 34.3034 8.64638 34.3034 10.0677C34.3034 11.503 33.1598 12.6569 31.7373 12.6569C30.3008 12.6569 29.1433 11.489 29.1433 10.0677C29.1433 10.0536 29.1433 10.0536 29.1433 10.0677Z" fill="#A88553"/>
</svg>
