<svg width="42" height="43" viewBox="0 0 42 43" fill="none" xmlns="http://www.w3.org/2000/svg">
<path d="M8.56513 4.36838C7.48216 4.36838 6.44355 4.81051 5.67777 5.59751C4.91199 6.38451 4.48179 7.45191 4.48179 8.56489V33.7439C4.48179 34.8569 4.91199 35.9243 5.67777 36.7113C6.44355 37.4983 7.48216 37.9404 8.56513 37.9404H33.0652C34.1482 37.9404 35.1868 37.4983 35.9526 36.7113C36.7184 35.9243 37.1486 34.8569 37.1486 33.7439V8.56489C37.1486 7.45191 36.7184 6.38451 35.9526 5.59751C35.1868 4.81051 34.1482 4.36838 33.0652 4.36838H8.56513ZM8.56513 0.171875H33.0652C35.2312 0.171875 37.3084 1.05614 38.8399 2.63013C40.3715 4.20413 41.2319 6.33892 41.2319 8.56489V33.7439C41.2319 35.9699 40.3715 38.1047 38.8399 39.6787C37.3084 41.2527 35.2312 42.1369 33.0652 42.1369H8.56513C6.39919 42.1369 4.32196 41.2527 2.79041 39.6787C1.25885 38.1047 0.398438 35.9699 0.398438 33.7439V8.56489C0.398438 6.33892 1.25885 4.20413 2.79041 2.63013C4.32196 1.05614 6.39919 0.171875 8.56513 0.171875Z" fill="#A88553"/>
<g clip-path="url(#clip0_2421_85)">
<path d="M10.1509 30.7296H13.1166C13.5257 30.7296 13.8574 30.3979 13.8574 29.9888V17.0259C13.8574 16.6168 13.5257 16.2852 13.1166 16.2852H10.1509C9.74176 16.2852 9.41016 16.6168 9.41016 17.0259V29.9888C9.41016 30.3979 9.74176 30.7296 10.1509 30.7296Z" fill="#A88553"/>
<path d="M10.1509 14.0057H13.1166C13.5257 14.0057 13.8574 13.6741 13.8574 13.2649V10.6314C13.8574 10.2223 13.5257 9.89062 13.1166 9.89062H10.1509C9.74176 9.89062 9.41016 10.2223 9.41016 10.6314V13.2649C9.41016 13.6741 9.74176 14.0057 10.1509 14.0057Z" fill="#A88553"/>
<path d="M31.1068 17.7858C30.69 17.2372 30.0755 16.7861 29.263 16.4325C28.4505 16.0791 27.5537 15.9023 26.5724 15.9023C24.5804 15.9023 22.8925 16.6626 21.5087 18.1833C21.2333 18.4859 21.0331 18.4197 21.0331 18.0106V17.023C21.0331 16.6138 20.7014 16.2822 20.2923 16.2822H17.6431C17.2339 16.2822 16.9023 16.6138 16.9023 17.023V29.9859C16.9023 30.395 17.234 30.7267 17.6431 30.7267H20.6088C21.018 30.7267 21.3496 30.395 21.3496 29.9859V25.4777C21.3496 23.5996 21.463 22.3123 21.6898 21.616C21.9165 20.9196 22.3361 20.3605 22.948 19.9384C23.5601 19.5163 24.2511 19.3052 25.0214 19.3052C25.6228 19.3052 26.1372 19.453 26.5646 19.7485C26.9919 20.044 27.3006 20.4579 27.4905 20.9909C27.6805 21.5237 27.7754 22.6975 27.7754 24.5124V29.9858C27.7754 30.395 28.107 30.7267 28.5162 30.7267H31.4818C31.891 30.7267 32.2226 30.395 32.2226 29.9858V22.6447C32.2226 21.347 32.1408 20.3499 31.9774 19.6535C31.814 18.9572 31.5238 18.3346 31.1068 17.7858Z" fill="#A88553"/>
</g>
<defs>
<clipPath id="clip0_2421_85">
<rect width="22.8125" height="22.8125" fill="white" transform="translate(9.41016 8.89844)"/>
</clipPath>
</defs>
</svg>
