<svg width="42" height="43" viewBox="0 0 42 43" fill="none" xmlns="http://www.w3.org/2000/svg">
<path d="M8.72138 4.36838C7.63841 4.36838 6.5998 4.81051 5.83402 5.59751C5.06824 6.38451 4.63804 7.45191 4.63804 8.56489V33.7439C4.63804 34.8569 5.06824 35.9243 5.83402 36.7113C6.5998 37.4983 7.63841 37.9404 8.72138 37.9404H33.2215C34.3044 37.9404 35.3431 37.4983 36.1088 36.7113C36.8746 35.9243 37.3048 34.8569 37.3048 33.7439V8.56489C37.3048 7.45191 36.8746 6.38451 36.1088 5.59751C35.3431 4.81051 34.3044 4.36838 33.2215 4.36838H8.72138ZM8.72138 0.171875H33.2215C35.3874 0.171875 37.4646 1.05614 38.9962 2.63013C40.5278 4.20413 41.3882 6.33892 41.3882 8.56489V33.7439C41.3882 35.9699 40.5278 38.1047 38.9962 39.6787C37.4646 41.2527 35.3874 42.1369 33.2215 42.1369H8.72138C6.55544 42.1369 4.47821 41.2527 2.94666 39.6787C1.4151 38.1047 0.554688 35.9699 0.554688 33.7439V8.56489C0.554688 6.33892 1.4151 4.20413 2.94666 2.63013C4.47821 1.05614 6.55544 0.171875 8.72138 0.171875Z" fill="#A88553"/>
<path d="M20.9748 10.4531C15.6422 10.4531 11.3203 14.7864 11.3203 20.1331C11.3203 24.0959 13.6962 27.499 17.0979 28.9964C17.0677 28.3233 17.0904 27.5066 17.2638 26.773C17.4524 25.9865 18.5084 21.5019 18.5084 21.5019C18.5084 21.5019 18.1991 20.8818 18.1991 19.9743C18.1991 18.5374 19.0288 17.4711 20.0621 17.4711C20.9371 17.4711 21.367 18.1291 21.367 18.9231C21.367 19.8079 20.8013 21.1314 20.5147 22.3565C20.2733 23.385 21.0276 24.2169 22.0383 24.2169C23.8711 24.2169 25.1005 21.8649 25.1005 19.0744C25.1005 16.9569 23.675 15.3687 21.0804 15.3687C18.1539 15.3687 16.3286 17.5543 16.3286 20.0046C16.3286 20.8516 16.5775 21.4414 16.9621 21.9027C17.1432 22.1145 17.1658 22.1977 17.0979 22.4397C17.0526 22.6136 16.947 23.0447 16.9018 23.2186C16.8339 23.4606 16.6378 23.5514 16.4191 23.4606C15.069 22.9086 14.4429 21.4263 14.4429 19.7626C14.4429 17.0098 16.7585 13.7126 21.3443 13.7126C25.0326 13.7126 27.4538 16.3897 27.4538 19.2559C27.4538 23.0522 25.3494 25.8882 22.2419 25.8882C21.201 25.8882 20.2205 25.321 19.8811 24.6857C19.8811 24.6857 19.3229 26.9167 19.2023 27.3477C18.9986 28.0964 18.5989 28.8376 18.2293 29.4199C19.0967 29.677 20.0169 29.8207 20.9672 29.8207C26.2998 29.8207 30.6217 25.4874 30.6217 20.1407C30.6292 14.7864 26.3073 10.4531 20.9748 10.4531Z" fill="#A88553"/>
</svg>
