<svg width="14" height="14" viewBox="0 0 14 14" fill="none" xmlns="http://www.w3.org/2000/svg">
<path d="M12.0903 12.0652C12.0032 11.6103 11.9827 8.50043 11.9759 6.9775C11.9759 6.51369 11.6138 6.13874 11.1681 6.13874H7.7254V3.51404C7.7254 3.4394 7.78346 3.3772 7.85689 3.37543L10.7241 3.3079C12.2081 3.27236 13.3506 1.92358 13.1866 0.388209C13.1849 0.359776 13.1815 0.33312 13.1781 0.304688C13.1781 0.304688 12.8349 1.47754 12.2508 1.59838C11.8137 1.68901 8.82516 1.71033 7.36166 1.71744C6.91595 1.71744 6.55733 2.09418 6.55733 2.55798V6.14051H4.30145C4.07945 6.14051 3.90014 5.95748 3.89501 5.72646L3.83524 3.02002C3.80109 1.47576 2.50494 0.286917 1.02948 0.457514C1.00387 0.459291 0.976542 0.462845 0.949219 0.466399C0.949219 0.466399 2.0763 0.823585 2.19243 1.43134C2.27611 1.87027 2.30002 4.78996 2.30685 6.36087C2.30855 6.91175 2.7389 7.35779 3.26658 7.35779H6.55733V9.7035C6.55733 9.93451 6.38143 10.1229 6.15943 10.1282L3.5586 10.1886C2.0746 10.2242 0.932142 11.5729 1.09608 13.1083C1.0995 13.1368 1.10291 13.1634 1.10633 13.1918C1.10633 13.1918 1.44787 12.019 2.03191 11.8981C2.45542 11.8111 5.25947 11.7862 6.76908 11.7809C7.29847 11.7773 7.72711 11.3313 7.72711 10.7804V7.35601H10.2494C10.3211 7.35601 10.3809 7.41643 10.3826 7.49285L10.4492 10.4765C10.4816 12.0208 11.7778 13.2096 13.2532 13.039C13.2806 13.0355 13.3079 13.0337 13.3335 13.0284C13.3335 13.0284 12.2064 12.6729 12.0903 12.0652Z" fill="#45133C"/>
</svg>
