<svg width="42" height="43" viewBox="0 0 42 43" fill="none" xmlns="http://www.w3.org/2000/svg">
<path d="M8.79951 4.36838C7.71654 4.36838 6.67792 4.81051 5.91215 5.59751C5.14637 6.38451 4.71616 7.45191 4.71616 8.56489V33.7439C4.71616 34.8569 5.14637 35.9243 5.91215 36.7113C6.67792 37.4983 7.71654 37.9404 8.79951 37.9404H33.2996C34.3826 37.9404 35.4212 37.4983 36.187 36.7113C36.9527 35.9243 37.3829 34.8569 37.3829 33.7439V8.56489C37.3829 7.45191 36.9527 6.38451 36.187 5.59751C35.4212 4.81051 34.3826 4.36838 33.2996 4.36838H8.79951ZM8.79951 0.171875H33.2996C35.4655 0.171875 37.5428 1.05614 39.0743 2.63013C40.6059 4.20413 41.4663 6.33892 41.4663 8.56489V33.7439C41.4663 35.9699 40.6059 38.1047 39.0743 39.6787C37.5428 41.2527 35.4655 42.1369 33.2996 42.1369H8.79951C6.63357 42.1369 4.55634 41.2527 3.02478 39.6787C1.49323 38.1047 0.632813 35.9699 0.632812 33.7439V8.56489C0.632813 6.33892 1.49323 4.20413 3.02478 2.63013C4.55634 1.05614 6.63357 0.171875 8.79951 0.171875Z" fill="#A88553"/>
<path d="M23.252 20.2326L31.8518 10.1758H29.8175L22.3457 18.9049L16.3779 10.1758H9.50391L18.5182 23.3834L9.50391 33.9257H11.5382L19.4245 24.7012L25.7201 33.9257H32.5941L23.252 20.2326ZM20.4657 23.4924L19.5498 22.1746L12.2805 11.7215H15.4138L21.2852 20.1632L22.1915 21.481L29.8175 32.4593H26.6842L20.4657 23.5023V23.4924Z" fill="#A88553"/>
</svg>
