<svg width="42" height="43" viewBox="0 0 42 43" fill="none" xmlns="http://www.w3.org/2000/svg">
<path fill-rule="evenodd" clip-rule="evenodd" d="M15.461 10.498C14.796 10.1074 13.9789 10.1102 13.3163 10.5054C12.6539 10.9005 12.2461 11.6282 12.2461 12.4154V30.0822C12.2461 30.8695 12.6539 31.5971 13.3163 31.9922C13.9789 32.3873 14.796 32.3902 15.461 31.9995L30.5026 23.1661C31.1721 22.773 31.5853 22.0414 31.5853 21.2488C31.5853 20.4562 31.1721 19.7246 30.5026 19.3315L15.461 10.498ZM27.0497 21.2488L15.461 27.399V14.8273L27.0497 21.2488Z" fill="#A88553"/>
<path d="M8.38545 4.46604C7.30247 4.46604 6.26386 4.90817 5.49808 5.69517C4.73231 6.48216 4.3021 7.54956 4.3021 8.66255V33.8416C4.3021 34.9546 4.73231 36.022 5.49808 36.809C6.26386 37.596 7.30247 38.0381 8.38545 38.0381H32.8855C33.9685 38.0381 35.0071 37.596 35.7729 36.809C36.5387 36.022 36.9689 34.9546 36.9689 33.8416V8.66255C36.9689 7.54956 36.5387 6.48216 35.7729 5.69517C35.0071 4.90817 33.9685 4.46604 32.8855 4.46604H8.38545ZM8.38545 0.269531H32.8855C35.0515 0.269531 37.1287 1.15379 38.6603 2.72779C40.1918 4.30178 41.0522 6.43658 41.0522 8.66255V33.8416C41.0522 36.0676 40.1918 38.2024 38.6603 39.7763C37.1287 41.3503 35.0515 42.2346 32.8855 42.2346H8.38545C6.2195 42.2346 4.14227 41.3503 2.61072 39.7763C1.07917 38.2024 0.21875 36.0676 0.21875 33.8416V8.66255C0.21875 6.43658 1.07917 4.30178 2.61072 2.72779C4.14227 1.15379 6.2195 0.269531 8.38545 0.269531Z" fill="#A88553"/>
</svg>
