<svg width="69" height="69" viewBox="0 0 69 69" fill="none" xmlns="http://www.w3.org/2000/svg">
<path d="M3.84179 55.0244L12.4767 63.6593C13.1496 64.3475 13.9533 64.8944 14.8405 65.2677C15.7277 65.641 16.6806 65.8334 17.6431 65.8334C18.6057 65.8334 19.5586 65.641 20.4458 65.2677C21.333 64.8944 22.1367 64.3475 22.8096 63.6593L27.7232 58.7457C28.395 58.0746 28.928 57.2777 29.2916 56.4005C29.6553 55.5233 29.8424 54.583 29.8424 53.6334C29.8424 52.6838 29.6553 51.7436 29.2916 50.8664C28.928 49.9892 28.395 49.1922 27.7232 48.5212L24.5077 45.2695C29.5243 36.898 36.5219 29.888 44.8845 24.8565L48.1 28.1082C48.7711 28.78 49.5681 29.313 50.4453 29.6766C51.3225 30.0402 52.2627 30.2274 53.2123 30.2274C54.1619 30.2274 55.1022 30.0402 55.9794 29.6766C56.8566 29.313 57.6535 28.78 58.3246 28.1082L63.1659 23.303C63.8378 22.6319 64.3707 21.835 64.7344 20.9578C65.098 20.0806 65.2852 19.1403 65.2852 18.1907C65.2852 17.2411 65.098 16.3008 64.7344 15.4236C64.3707 14.5464 63.8378 13.7495 63.1659 13.0784L54.531 4.37129C53.9431 3.7795 53.1685 3.40938 52.3388 3.32377C51.509 3.23816 50.6751 3.44232 49.9788 3.90161C31.504 16.163 15.6696 31.9974 3.40824 50.4721C2.94438 51.1645 2.73414 51.996 2.81315 52.8256C2.89217 53.6552 3.25557 54.432 3.84179 55.0244Z" stroke="#A98351" stroke-width="5.48312" stroke-linecap="round" stroke-linejoin="round"/>
</svg>
