<svg width="146" height="146" viewBox="0 0 146 146" fill="none" xmlns="http://www.w3.org/2000/svg">
<g opacity="0.3">
<path d="M73.0674 6.23275C109.785 6.23275 139.668 36.1152 139.668 72.833C139.668 109.551 109.785 139.433 73.0674 139.433C36.3496 139.433 6.46713 109.551 6.46713 72.833C6.46713 36.1152 36.3496 6.23275 73.0674 6.23275ZM73.0674 0.390625C33.0488 0.390625 0.625 32.8144 0.625 72.833C0.625 112.852 33.0488 145.275 73.0674 145.275C113.086 145.275 145.51 112.852 145.51 72.833C145.51 32.8144 113.086 0.390625 73.0674 0.390625Z" fill="white"/>
</g>
<path d="M111.248 72.8616L51.0156 33.2812C51.1033 92.9586 51.0156 63.6603 51.0156 112.442L111.248 72.8616Z" fill="white"/>
</svg>
