<svg width="293" height="291" viewBox="0 0 293 291" fill="none" xmlns="http://www.w3.org/2000/svg">
<path opacity="0.14" d="M146.308 286.797C224.693 286.797 288.237 223.541 288.237 145.512C288.237 67.4821 224.693 4.22656 146.308 4.22656C67.9227 4.22656 4.37891 67.4821 4.37891 145.512C4.37891 223.541 67.9227 286.797 146.308 286.797Z" fill="#ACB7BF"/>
<path opacity="0.29" d="M146.308 282.725C222.435 282.725 284.148 221.292 284.148 145.511C284.148 69.7298 222.435 8.29688 146.308 8.29688C70.1816 8.29688 8.46875 69.7298 8.46875 145.511C8.46875 221.292 70.1816 282.725 146.308 282.725Z" fill="#ACB7BF"/>
<path opacity="0.43" d="M146.305 278.654C220.173 278.654 280.055 219.044 280.055 145.511C280.055 71.9775 220.173 12.3672 146.305 12.3672C72.4367 12.3672 12.5547 71.9775 12.5547 145.511C12.5547 219.044 72.4367 278.654 146.305 278.654Z" fill="#ACB7BF"/>
<path opacity="0.57" d="M146.306 274.591C217.917 274.591 275.97 216.801 275.97 145.514C275.97 74.2271 217.917 16.4375 146.306 16.4375C74.6936 16.4375 16.6406 74.2271 16.6406 145.514C16.6406 216.801 74.6936 274.591 146.306 274.591Z" fill="#ACB7BF"/>
<path opacity="0.71" d="M146.31 270.519C215.663 270.519 271.885 214.552 271.885 145.514C271.885 76.4748 215.663 20.5078 146.31 20.5078C76.9564 20.5078 20.7344 76.4748 20.7344 145.514C20.7344 214.552 76.9564 270.519 146.31 270.519Z" fill="#ACB7BF"/>
<path opacity="0.86" d="M146.306 266.448C213.401 266.448 267.792 212.303 267.792 145.513C267.792 78.7225 213.401 24.5781 146.306 24.5781C79.2114 24.5781 24.8203 78.7225 24.8203 145.513C24.8203 212.303 79.2114 266.448 146.306 266.448Z" fill="#ACB7BF"/>
<path d="M146.311 262.376C211.147 262.376 263.707 210.055 263.707 145.512C263.707 80.9702 211.147 28.6484 146.311 28.6484C81.4743 28.6484 28.9141 80.9702 28.9141 145.512C28.9141 210.055 81.4743 262.376 146.311 262.376Z" fill="#ACB7BF"/>
<path d="M146.309 270.67C215.908 270.67 272.329 214.505 272.329 145.222C272.329 75.9385 215.908 19.7734 146.309 19.7734C76.7101 19.7734 20.2891 75.9385 20.2891 145.222C20.2891 214.505 76.7101 270.67 146.309 270.67Z" fill="white"/>
<path d="M218.921 99.8968C227.151 113.319 231.46 128.6 231.46 144.597C231.46 192.082 192.657 230.714 144.951 230.714C97.2447 230.714 58.4413 192.082 58.4413 144.597C58.4413 97.1112 97.2489 58.4796 144.951 58.4796C162.977 58.4796 180.05 63.8527 194.63 74.0806L202.394 64.8599C185.6 52.82 165.834 46.4818 144.951 46.4818C118.628 46.4818 93.8749 56.6886 75.2606 75.2184C56.6421 93.7525 46.393 118.389 46.393 144.597C46.393 170.805 56.6421 195.441 75.2606 213.975C93.8749 232.505 118.628 242.707 144.951 242.707C171.274 242.707 196.031 232.505 214.645 213.975C233.26 195.441 243.513 170.805 243.513 144.597C243.513 125.591 238.17 107.474 227.989 91.7086L218.921 99.8968Z" fill="#C19A4C"/>
<path d="M185.088 85.4116C173.213 77.413 159.366 73.1946 144.951 73.1946C105.403 73.1946 73.2245 105.227 73.2245 144.6C73.2245 183.973 105.403 216.005 144.951 216.005C184.5 216.005 216.682 183.973 216.682 144.6C216.682 132.408 213.596 120.558 207.72 110.014L198.499 118.341C202.53 126.462 204.629 135.413 204.629 144.604C204.629 177.361 177.862 204.012 144.951 204.012C112.041 204.012 85.2728 177.361 85.2728 144.604C85.2728 111.847 112.045 85.1967 144.951 85.1967C156.525 85.1967 167.655 88.4627 177.294 94.6702L185.084 85.4158L185.088 85.4116Z" fill="#C19A4C"/>
<path d="M144.955 109.87C149.671 109.87 154.235 110.784 158.532 112.596C159.425 112.971 160.301 113.384 161.157 113.835L169.022 104.488C167.168 103.371 165.229 102.39 163.223 101.547C157.435 99.1109 151.289 97.872 144.955 97.872C119.081 97.872 98.0281 118.833 98.0281 144.591C98.0281 170.348 119.081 191.305 144.955 191.305C170.83 191.305 191.887 170.348 191.887 144.591C191.887 138.619 190.769 132.803 188.564 127.3L185.863 129.735L178.895 136.516C179.521 139.142 179.839 141.839 179.839 144.586C179.839 163.731 164.192 179.311 144.955 179.311C125.719 179.311 110.072 163.731 110.072 144.586C110.072 125.441 125.723 109.861 144.955 109.861V109.87Z" fill="#C19A4C"/>
<path d="M247.267 72.0921L261.8 60.7433L240.294 57.1022L233.978 38.7578L220.511 50.6756L225.685 62.6481L221.409 66.7022L216.121 55.9054L206.351 64.5487L210.605 76.9342L155.745 128.912C152.637 126.906 148.933 125.739 144.954 125.739C133.981 125.739 125.082 134.593 125.082 145.52C125.082 156.448 133.976 165.302 144.954 165.302C155.931 165.302 164.825 156.448 164.825 145.52C164.825 142.992 164.343 140.573 163.475 138.348L220.571 84.2543L233.11 85.9652L243.135 78.1395L230.921 74.4521L235.819 69.8122L247.271 72.1005L247.267 72.0921Z" fill="#45133C"/>
</svg>
