<svg width="288" height="286" viewBox="0 0 288 286" fill="none" xmlns="http://www.w3.org/2000/svg">
<path opacity="0.14" d="M143.829 281.853C220.787 281.853 283.173 219.696 283.173 143.022C283.173 66.3481 220.787 4.19141 143.829 4.19141C66.871 4.19141 4.48438 66.3481 4.48438 143.022C4.48438 219.696 66.871 281.853 143.829 281.853Z" fill="#ACB7BF"/>
<path opacity="0.29" d="M143.829 277.853C218.57 277.853 279.159 217.487 279.159 143.022C279.159 68.5572 218.57 8.19141 143.829 8.19141C69.089 8.19141 8.5 68.5572 8.5 143.022C8.5 217.487 69.089 277.853 143.829 277.853Z" fill="#ACB7BF"/>
<path opacity="0.43" d="M143.83 273.852C216.353 273.852 275.144 215.278 275.144 143.022C275.144 70.7662 216.353 12.1914 143.83 12.1914C71.3071 12.1914 12.5156 70.7662 12.5156 143.022C12.5156 215.278 71.3071 273.852 143.83 273.852Z" fill="#ACB7BF"/>
<path opacity="0.57" d="M143.831 269.86C214.139 269.86 271.134 213.075 271.134 143.026C271.134 72.9771 214.139 16.1914 143.831 16.1914C73.5231 16.1914 16.5273 72.9771 16.5273 143.026C16.5273 213.075 73.5231 269.86 143.831 269.86Z" fill="#ACB7BF"/>
<path opacity="0.71" d="M143.828 265.856C211.918 265.856 267.116 210.861 267.116 143.022C267.116 75.1823 211.918 20.1875 143.828 20.1875C75.7372 20.1875 20.5391 75.1823 20.5391 143.022C20.5391 210.861 75.7372 265.856 143.828 265.856Z" fill="#ACB7BF"/>
<path opacity="0.86" d="M143.828 261.856C209.701 261.856 263.102 208.652 263.102 143.022C263.102 77.3913 209.701 24.1875 143.828 24.1875C77.9553 24.1875 24.5547 77.3913 24.5547 143.022C24.5547 208.652 77.9553 261.856 143.828 261.856Z" fill="#ACB7BF"/>
<path d="M143.829 257.855C207.484 257.855 259.087 206.442 259.087 143.021C259.087 79.6003 207.484 28.1875 143.829 28.1875C80.1733 28.1875 28.5703 79.6003 28.5703 143.021C28.5703 206.442 80.1733 257.855 143.829 257.855Z" fill="#ACB7BF"/>
<path d="M143.827 266.011C212.158 266.011 267.552 210.821 267.552 142.742C267.552 74.6621 212.158 19.4727 143.827 19.4727C75.4951 19.4727 20.1016 74.6621 20.1016 142.742C20.1016 210.821 75.4951 266.011 143.827 266.011Z" fill="white"/>
<path d="M158.408 153.938C152.028 153.938 146.858 148.786 146.858 142.43C146.858 138.504 148.832 135.038 151.841 132.963C148.537 131.647 144.929 130.922 141.151 130.922C125.241 130.922 112.344 143.771 112.344 159.627C112.344 175.483 125.241 188.328 141.151 188.328C157.061 188.328 169.958 175.479 169.958 159.627C169.958 155.863 169.231 152.269 167.909 148.977C165.823 151.975 162.348 153.942 158.408 153.942V153.938Z" fill="#45133C"/>
<path d="M232.979 155.513C232.567 154.967 222.696 141.98 206.715 128.887C185.148 111.213 162.654 101.875 141.665 101.875C120.675 101.875 98.1813 111.217 76.6142 128.887C60.6332 141.985 50.7619 154.967 50.3505 155.513C48.5134 157.948 48.5134 161.298 50.3505 163.733C50.7619 164.28 60.6332 177.266 76.6142 190.36C98.1813 208.033 120.675 217.371 141.665 217.371C162.654 217.371 185.148 208.029 206.715 190.36C222.696 177.262 232.567 164.28 232.979 163.733C234.816 161.298 234.816 157.948 232.979 155.513ZM187.421 159.36C187.421 177.026 177.396 192.397 162.72 200.137C155.983 202.364 148.917 203.698 141.66 203.698C133.389 203.698 125.364 201.959 117.787 199.147C104.087 191.134 94.8687 176.301 94.8687 159.36C94.8687 143.322 103.136 129.168 115.642 120.907C123.834 117.619 132.595 115.544 141.656 115.544C149.79 115.544 157.683 117.226 165.148 119.959C178.489 128.058 187.417 142.689 187.417 159.36H187.421ZM64.7022 159.617C69.9516 153.513 80.9742 141.728 95.4256 131.876C90.5461 139.902 87.7365 149.31 87.7365 159.36C87.7365 169.41 90.7539 179.481 95.9576 187.693C81.2568 177.775 70.0223 165.787 64.7022 159.617ZM185.555 188.894C191.237 180.438 194.558 170.28 194.558 159.36C194.558 148.44 191.474 139.016 186.162 130.746C201.449 140.809 213.153 153.281 218.619 159.621C213.082 166.044 201.137 178.761 185.555 188.894Z" fill="#C19A4C"/>
<path d="M141.105 91.3323C139.135 91.3323 137.539 89.7421 137.539 87.7793V61.1155C137.539 59.1526 139.135 57.5625 141.105 57.5625C143.075 57.5625 144.671 59.1526 144.671 61.1155V87.7793C144.671 89.7421 143.075 91.3323 141.105 91.3323Z" fill="#45133C"/>
<path d="M109.199 98.8029C107.885 98.8029 106.622 98.0782 105.998 96.8277L94.1111 72.9383C93.2341 71.1784 93.9573 69.0458 95.7238 68.1762C97.4902 67.3024 99.6307 68.0229 100.504 69.7829L112.391 93.6722C113.268 95.4322 112.544 97.5648 110.778 98.4344C110.271 98.687 109.726 98.8071 109.194 98.8071L109.199 98.8029Z" fill="#45133C"/>
<path d="M87.8222 114.944C86.9702 114.944 86.114 114.641 85.4323 114.024L65.5818 96.1435C64.1188 94.8266 64.0065 92.5781 65.3283 91.1204C66.65 89.6628 68.9068 89.551 70.3699 90.8678L90.2204 108.749C91.6834 110.065 91.7956 112.314 90.4739 113.772C89.7715 114.546 88.7989 114.944 87.8264 114.944H87.8222Z" fill="#45133C"/>
<path d="M172.026 98.2784C171.511 98.2784 170.987 98.1666 170.493 97.9306C168.714 97.0858 167.962 94.9656 168.809 93.1933L180.327 69.1258C181.174 67.3535 183.302 66.604 185.081 67.4487C186.86 68.2935 187.613 70.4137 186.765 72.186L175.248 96.2535C174.637 97.533 173.356 98.2784 172.026 98.2784Z" fill="#45133C"/>
<path d="M195.805 116.45C194.795 116.45 193.794 116.028 193.087 115.2C191.807 113.705 191.99 111.46 193.49 110.189L213.86 92.8964C215.361 91.621 217.613 91.8032 218.889 93.2981C220.17 94.793 219.987 97.0374 218.486 98.3087L198.116 115.601C197.443 116.173 196.62 116.45 195.805 116.45Z" fill="#45133C"/>
</svg>
